<svg width="398" height="44" viewBox="0 0 398 44" fill="none" xmlns="http://www.w3.org/2000/svg">
<g clip-path="url(#clip0_103_106)">
<path d="M30.2608 7.26717C29.4577 3.48096 27.163 0.899498 26.1304 0.383225C23.807 -0.778413 23.0327 1.07159 22 1.07159C20.9674 1.07159 20.193 -0.778518 17.8696 0.383225C16.8371 0.899498 14.5424 3.48096 13.7392 7.26717C12.9361 11.0534 22 7.95553 22 7.95553C22 7.95553 31.0639 11.0534 30.2608 7.26717Z" fill="#FFD24F"/>
<path d="M22 18.5868C30.7444 18.5868 37.8331 15.967 37.8331 12.7354C37.8331 9.50372 30.7444 6.88396 22 6.88396C13.2556 6.88396 6.1669 9.50372 6.1669 12.7354C6.1669 15.967 13.2556 18.5868 22 18.5868Z" fill="#FFBE1E"/>
<path d="M12.6842 16.9719C11.6523 16.7138 10.9763 17.2654 10.9763 18.3488C10.9763 19.7829 12.364 23.2966 13.8228 21.1023C15.2817 18.908 12.6842 16.9719 12.6842 16.9719Z" fill="#FFE1B2"/>
<path d="M31.1406 16.9719C32.2669 16.7138 33.0049 17.2654 33.0049 18.3488C33.0049 19.7829 31.4902 23.2966 29.8977 21.1023C28.3053 18.908 31.1406 16.9719 31.1406 16.9719Z" fill="#FFE1B2"/>
<path d="M14.4371 29.4895C15.9766 28.4983 15.8044 25.5481 15.8044 24.8598H28.1956C28.1956 25.5481 28.0047 28.4983 29.5441 29.4895L22 37.9393L14.4371 29.4895Z" fill="#FFD7A3"/>
<path d="M26.8187 32.4322L29.5441 29.4895C28.0045 28.4984 28.1956 25.5481 28.1956 24.8598H15.8044C16.6934 27.4158 22.5737 31.8012 26.8187 32.4322Z" fill="#FDC88E"/>
<path d="M37.8331 44C38.9737 44 39.8983 43.0754 39.8983 41.9348V37.8331C39.8983 34.8041 37.538 31.5705 34.6531 30.6474L30.3463 29.2694C28.0292 31.0411 24.7179 33.458 22 33.458C19.2821 33.458 15.9707 31.0411 13.6536 29.2694L9.34687 30.6474C6.46203 31.5705 4.10172 34.8041 4.10172 37.8331V41.9348C4.10172 43.0754 5.0263 44 6.16691 44H37.8331Z" fill="#FF6953"/>
<path d="M39.8534 42.3607H38.7847V40.9134H39.8983V39.8595H38.7847V38.4121H39.8983V37.833C39.8983 37.6752 39.8881 37.5167 39.8756 37.3583H38.7847V35.911H39.5942C39.4853 35.5535 39.3498 35.2012 39.1879 34.8571H38.7847V34.1022C38.4011 33.4635 37.9328 32.8723 37.4013 32.3559H36.2836V31.4467C35.7695 31.1042 35.2222 30.8295 34.6532 30.6473L32.1758 29.8546H31.2812V29.5682L30.3464 29.2691C30.3077 29.2988 30.2666 29.3298 30.2273 29.3597V29.8546H29.5718C28.9936 30.2862 28.3724 30.7328 27.7261 31.1609V32.3558H26.2787V32.0522C25.0646 32.7359 23.8183 33.2592 22.6522 33.4096H22.7237V34.8569H21.2764V33.4096H21.3479C20.1817 33.2592 18.9354 32.7358 17.7213 32.0521V32.3557H16.2739V31.1608C15.6276 30.7327 15.0064 30.2861 14.4282 29.8545H13.7727V29.3596C13.7335 29.3297 13.6922 29.2986 13.6535 29.269L12.7188 29.5681V29.8545H11.8241L9.34677 30.6472C8.77777 30.8293 8.23043 31.104 7.71635 31.4466V32.3558H6.59876C6.06732 32.8722 5.59896 33.4632 5.21534 34.1021V34.857H4.81215C4.65042 35.2011 4.51484 35.5533 4.40583 35.9109H5.21534V37.3583H4.12442C4.11186 37.5167 4.10172 37.6752 4.10172 37.833V38.4121H5.21523V39.8595H4.10172V40.9134H5.21523V42.3607H4.1467C4.23269 42.7703 4.44077 43.1336 4.73013 43.4146H5.21523V43.7575C5.50125 43.9072 5.82168 44 6.16691 44H6.26922V43.4146H7.71656V44H8.77055V43.4146H10.2177V44H11.2716V43.4146H12.7189V44H13.7728V43.4146H15.2201V44H16.274V43.4146H17.7214V44H18.7754V43.4146H20.2227V44H21.2766V43.4146H22.7239V44H23.7778V43.4146H25.2251V44H26.279V43.4146H27.7264V44H28.7803V43.4146H30.2276V44H31.2815V43.4146H32.7288V44H33.7827V43.4146H35.23V44H36.284V43.4146H37.7314V44H37.8337C38.1789 44 38.4994 43.9072 38.7854 43.7575V43.4146H39.2705C39.5592 43.1336 39.7674 42.7703 39.8534 42.3607ZM7.71646 42.3607H6.26912V40.9134H7.71646V42.3607ZM7.71646 39.8596H6.26912V38.4122H7.71646V39.8596ZM7.71646 37.3584H6.26912V35.911H7.71646V37.3584ZM7.71646 34.8571H6.26912V33.4098H7.71646V34.8571ZM10.2177 42.3607H8.77034V40.9134H10.2177V42.3607ZM10.2177 39.8596H8.77034V38.4122H10.2177V39.8596ZM10.2177 37.3584H8.77034V35.911H10.2177V37.3584ZM10.2177 34.8571H8.77034V33.4098H10.2177V34.8571ZM10.2177 32.3559H8.77034V30.9086H10.2177V32.3559ZM12.7189 42.3607H11.2716V40.9134H12.7189V42.3607ZM12.7189 39.8596H11.2716V38.4122H12.7189V39.8596ZM12.7189 37.3584H11.2716V35.911H12.7189V37.3584ZM12.7189 34.8571H11.2716V33.4098H12.7189V34.8571ZM12.7189 32.3559H11.2716V30.9086H12.7189V32.3559ZM15.22 42.3607H13.7727V40.9134H15.22V42.3607ZM15.22 39.8596H13.7727V38.4122H15.22V39.8596ZM15.22 37.3584H13.7727V35.911H15.22V37.3584ZM15.22 34.8571H13.7727V33.4098H15.22V34.8571ZM15.22 32.3559H13.7727V30.9086H15.22V32.3559ZM17.7213 42.3607H16.2739V40.9134H17.7213V42.3607ZM17.7213 39.8596H16.2739V38.4122H17.7213V39.8596ZM17.7213 37.3584H16.2739V35.911H17.7213V37.3584ZM17.7213 34.8571H16.2739V33.4098H17.7213V34.8571ZM20.2225 42.3607H18.7751V40.9134H20.2225V42.3607ZM20.2225 39.8596H18.7751V38.4122H20.2225V39.8596ZM20.2225 37.3584H18.7751V35.911H20.2225V37.3584ZM20.2225 34.8571H18.7751V33.4098H20.2225V34.8571ZM22.7236 42.3607H21.2763V40.9134H22.7236V42.3607ZM22.7236 39.8596H21.2763V38.4122H22.7236V39.8596ZM22.7236 37.3584H21.2763V35.911H22.7236V37.3584ZM25.2248 42.3607H23.7775V40.9134H25.2248V42.3607ZM25.2248 39.8596H23.7775V38.4122H25.2248V39.8596ZM25.2248 37.3584H23.7775V35.911H25.2248V37.3584ZM25.2248 34.8571H23.7775V33.4098H25.2248V34.8571ZM27.7261 42.3607H26.2787V40.9134H27.7261V42.3607ZM27.7261 39.8596H26.2787V38.4122H27.7261V39.8596ZM27.7261 37.3584H26.2787V35.911H27.7261V37.3584ZM27.7261 34.8571H26.2787V33.4098H27.7261V34.8571ZM30.2273 42.3607H28.7799V40.9134H30.2273V42.3607ZM30.2273 39.8596H28.7799V38.4122H30.2273V39.8596ZM30.2273 37.3584H28.7799V35.911H30.2273V37.3584ZM30.2273 34.8571H28.7799V33.4098H30.2273V34.8571ZM30.2273 32.3559H28.7799V30.9086H30.2273V32.3559ZM32.7284 42.3607H31.2811V40.9134H32.7284V42.3607ZM32.7284 39.8596H31.2811V38.4122H32.7284V39.8596ZM32.7284 37.3584H31.2811V35.911H32.7284V37.3584ZM32.7284 34.8571H31.2811V33.4098H32.7284V34.8571ZM32.7284 32.3559H31.2811V30.9086H32.7284V32.3559ZM35.2296 42.3607H33.7823V40.9134H35.2296V42.3607ZM35.2296 39.8596H33.7823V38.4122H35.2296V39.8596ZM35.2296 37.3584H33.7823V35.911H35.2296V37.3584ZM35.2296 34.8571H33.7823V33.4098H35.2296V34.8571ZM35.2296 32.3559H33.7823V30.9086H35.2296V32.3559ZM37.7309 42.3607H36.2835V40.9134H37.7309V42.3607ZM37.7309 39.8596H36.2835V38.4122H37.7309V39.8596ZM37.7309 37.3584H36.2835V35.911H37.7309V37.3584ZM37.7309 34.8571H36.2835V33.4098H37.7309V34.8571Z" fill="#E95F43"/>
<path d="M22 33.4579L19.1277 36.3302C18.8286 36.6293 18.333 36.5904 18.0842 36.2483L13.0508 29.3274L14.6542 27.7241C14.9131 27.4652 15.3293 27.4543 15.6014 27.6992L22 33.4579Z" fill="#FFBE1E"/>
<path d="M22 33.4579L24.8723 36.3302C25.1714 36.6293 25.6669 36.5904 25.9158 36.2483L30.9491 29.3274L29.3458 27.7241C29.0869 27.4652 28.6706 27.4543 28.3985 27.6992L22 33.4579Z" fill="#FFBE1E"/>
<path d="M12.7917 12.317C12.6307 13.2909 12.6219 14.4618 12.6219 15.8533C12.6219 21.3661 15.7108 28.2445 22.0001 28.2445C28.2894 28.2445 31.3782 21.3661 31.3782 15.8533C31.3782 14.4617 31.3695 13.2909 31.2085 12.317C28.6855 11.4668 25.4852 10.957 22.0002 10.957C18.5152 10.957 15.3146 11.4667 12.7917 12.317Z" fill="#FFE1B2"/>
<path d="M31.4134 13.4306C30.8624 12.7235 30.2715 11.997 30.2715 11.997V12.6854C30.4422 18.9239 28.2223 21.6345 28.2223 21.6345L25.3937 21.9512C23.1878 22.1982 20.9616 22.1982 18.7557 21.9512L15.9271 21.6345C15.9271 21.6345 13.7072 18.9239 13.8779 12.6854V11.997C13.8779 11.997 13.287 12.7234 12.736 13.4306C12.5924 14.0446 12.3624 14.7122 12.3624 15.4449C12.3624 20.9576 15.6615 28.9057 22.0747 28.9057C28.4879 28.9057 31.6375 20.9576 31.6375 15.4449C31.6376 14.7122 31.5571 14.0446 31.4134 13.4306ZM20.0255 23.2695H24.1239C24.6858 23.2695 25.1675 23.6119 25.3774 24.1006C24.6207 24.4324 23.4593 24.6462 22.1501 24.6462C20.7679 24.6462 19.553 24.4073 18.803 24.0431C19.0254 23.5866 19.4867 23.2695 20.0255 23.2695Z" fill="#A7795E"/>
<path d="M22.3657 22.6571C22.3657 21.7481 21.4837 21.5423 20.9029 21.7626C19.838 22.1666 18.6656 23.2934 17.6761 22.5965C17.6761 22.5965 18.0202 24.051 18.601 24.051C19.7626 24.0509 22.3657 24.2025 22.3657 22.6571Z" fill="#543D38"/>
<path d="M22.0873 22.6571C22.0873 21.7481 22.9693 21.5423 23.5502 21.7626C24.615 22.1666 25.7875 23.2934 26.777 22.5965C26.777 22.5965 26.4328 24.051 25.8521 24.051C24.6905 24.0509 22.0873 24.2025 22.0873 22.6571Z" fill="#543D38"/>
<path d="M33.7028 30.2536L30.9492 29.3724V37.8429C30.9492 38.158 30.7401 38.4366 30.4342 38.5119C28.1039 39.0859 25.1809 39.4294 22.0001 39.4294C18.8193 39.4294 15.8963 39.0859 13.566 38.5119C13.26 38.4366 13.051 38.158 13.051 37.8429V29.3724L10.2974 30.2536V44H33.7029V30.2536H33.7028Z" fill="#C55F54"/>
<path d="M12.4086 17.0609L14.2675 17.4037C14.2675 17.4037 14.9935 13.3329 15.3826 11.6417C14.3673 11.8443 13.4098 12.0881 12.5369 12.3743C12.3714 13.3482 12.3624 14.5191 12.3624 15.9106C12.3625 16.2885 12.3788 16.673 12.4086 17.0609Z" fill="#543D38"/>
<path d="M31.5914 17.0609L29.7325 17.4037C29.7325 17.4037 29.0065 13.3329 28.6174 11.6417C29.6327 11.8443 30.5902 12.0881 31.4631 12.3743C31.6286 13.3482 31.6376 14.5191 31.6376 15.9106C31.6376 16.2885 31.6212 16.673 31.5914 17.0609Z" fill="#543D38"/>
<path d="M26.0444 13.3234L27.6961 11.4432C25.9426 11.1331 24.022 10.957 22 10.957C20.7694 10.957 19.5771 11.0237 18.4348 11.1433C19.5146 11.0695 23.764 11.6417 26.0444 13.3234Z" fill="#543D38"/>
</g>
<path d="M77.8239 13.8239H82.3778C84.0085 13.8239 85.4536 14.1686 86.7131 14.858C87.9792 15.5473 88.9702 16.5185 89.6861 17.7713C90.4086 19.0175 90.7699 20.4825 90.7699 22.1662C90.7699 23.7969 90.4086 25.2187 89.6861 26.4318C88.9702 27.6449 87.9792 28.5895 86.7131 29.2656C85.4536 29.9351 84.0085 30.2699 82.3778 30.2699H77.8239C76.1866 30.2699 74.7348 29.9384 73.4688 29.2756C72.2027 28.6061 71.2083 27.6648 70.4858 26.4517C69.7699 25.2386 69.4119 23.8068 69.4119 22.1562C69.4119 20.4725 69.7732 19.0076 70.4957 17.7614C71.2249 16.5085 72.2225 15.5407 73.4886 14.858C74.7547 14.1686 76.1998 13.8239 77.8239 13.8239ZM77.8239 17.4233C76.9489 17.4233 76.1766 17.599 75.5071 17.9503C74.8442 18.295 74.3272 18.8187 73.956 19.5213C73.5848 20.224 73.3991 21.1023 73.3991 22.1562C73.3991 23.1638 73.5881 24.0024 73.9659 24.6719C74.3504 25.3414 74.8741 25.8419 75.5369 26.1733C76.1998 26.5047 76.9621 26.6705 77.8239 26.6705H82.4077C83.276 26.6705 84.035 26.5014 84.6847 26.1634C85.3409 25.8253 85.848 25.3215 86.206 24.652C86.5705 23.9825 86.7528 23.1539 86.7528 22.1662C86.7528 21.1122 86.5705 20.2339 86.206 19.5312C85.848 18.8286 85.3409 18.3016 84.6847 17.9503C84.035 17.599 83.276 17.4233 82.4077 17.4233H77.8239ZM82.1392 11.2784V32.8352H78.0526V11.2784H82.1392ZM100.822 32.2983C99.2514 32.2983 97.8991 31.9801 96.7656 31.3438C95.6387 30.7008 94.7704 29.7926 94.1605 28.6193C93.5507 27.4394 93.2457 26.044 93.2457 24.4332C93.2457 22.8622 93.5507 21.4834 94.1605 20.2969C94.7704 19.1103 95.6288 18.1856 96.7358 17.5227C97.8494 16.8598 99.1553 16.5284 100.653 16.5284C101.661 16.5284 102.599 16.6908 103.467 17.0156C104.342 17.3338 105.105 17.8144 105.754 18.4574C106.411 19.1004 106.921 19.9091 107.286 20.8835C107.65 21.8513 107.832 22.9848 107.832 24.2841V25.4474H94.9361V22.8224H103.845C103.845 22.2126 103.713 21.6723 103.447 21.2017C103.182 20.7311 102.814 20.3632 102.344 20.098C101.88 19.8262 101.339 19.6903 100.723 19.6903C100.08 19.6903 99.5099 19.8395 99.0128 20.1378C98.5223 20.4295 98.1378 20.8239 97.8594 21.321C97.581 21.8116 97.4384 22.3584 97.4318 22.9616V25.4574C97.4318 26.2131 97.571 26.866 97.8494 27.4162C98.1345 27.9664 98.5355 28.3906 99.0526 28.6889C99.5696 28.9872 100.183 29.1364 100.892 29.1364C101.363 29.1364 101.794 29.0701 102.185 28.9375C102.576 28.8049 102.911 28.6061 103.189 28.3409C103.467 28.0758 103.679 27.7509 103.825 27.3665L107.743 27.625C107.544 28.5663 107.136 29.3883 106.52 30.0909C105.91 30.7869 105.121 31.3305 104.153 31.7216C103.192 32.1061 102.082 32.2983 100.822 32.2983ZM110.597 37.7273V16.7273H114.773V19.2926H114.962C115.147 18.8816 115.416 18.464 115.767 18.0398C116.125 17.6089 116.589 17.2509 117.159 16.9659C117.736 16.6742 118.452 16.5284 119.307 16.5284C120.42 16.5284 121.448 16.8201 122.389 17.4034C123.33 17.9801 124.083 18.8518 124.646 20.0185C125.21 21.1785 125.491 22.6335 125.491 24.3835C125.491 26.0871 125.216 27.5256 124.666 28.6989C124.123 29.8655 123.38 30.7505 122.439 31.3537C121.504 31.9503 120.457 32.2486 119.297 32.2486C118.475 32.2486 117.776 32.1127 117.199 31.8409C116.629 31.5691 116.161 31.2277 115.797 30.8168C115.432 30.3991 115.154 29.9782 114.962 29.554H114.832V37.7273H110.597ZM114.743 24.3636C114.743 25.2718 114.869 26.0639 115.121 26.7401C115.373 27.4162 115.737 27.9432 116.214 28.321C116.692 28.6922 117.272 28.8778 117.955 28.8778C118.644 28.8778 119.227 28.6889 119.705 28.3111C120.182 27.9266 120.543 27.3963 120.788 26.7202C121.04 26.0374 121.166 25.2519 121.166 24.3636C121.166 23.482 121.044 22.7064 120.798 22.0369C120.553 21.3674 120.192 20.8437 119.714 20.4659C119.237 20.0881 118.651 19.8991 117.955 19.8991C117.265 19.8991 116.682 20.0814 116.205 20.446C115.734 20.8106 115.373 21.3277 115.121 21.9972C114.869 22.6667 114.743 23.4555 114.743 24.3636ZM137.344 27.3168L141.48 16.7273H144.702L138.746 32H135.932L130.115 16.7273H133.327L137.344 27.3168ZM132.362 16.7273V32H128.315V16.7273H132.362ZM142.534 32V16.7273H146.531V32H142.534ZM156.768 32.2983C155.197 32.2983 153.844 31.9801 152.711 31.3438C151.584 30.7008 150.716 29.7926 150.106 28.6193C149.496 27.4394 149.191 26.044 149.191 24.4332C149.191 22.8622 149.496 21.4834 150.106 20.2969C150.716 19.1103 151.574 18.1856 152.681 17.5227C153.795 16.8598 155.101 16.5284 156.599 16.5284C157.606 16.5284 158.544 16.6908 159.413 17.0156C160.288 17.3338 161.05 17.8144 161.7 18.4574C162.356 19.1004 162.866 19.9091 163.231 20.8835C163.595 21.8513 163.778 22.9848 163.778 24.2841V25.4474H150.881V22.8224H159.79C159.79 22.2126 159.658 21.6723 159.393 21.2017C159.128 20.7311 158.76 20.3632 158.289 20.098C157.825 19.8262 157.285 19.6903 156.668 19.6903C156.025 19.6903 155.455 19.8395 154.958 20.1378C154.468 20.4295 154.083 20.8239 153.805 21.321C153.526 21.8116 153.384 22.3584 153.377 22.9616V25.4574C153.377 26.2131 153.516 26.866 153.795 27.4162C154.08 27.9664 154.481 28.3906 154.998 28.6889C155.515 28.9872 156.128 29.1364 156.837 29.1364C157.308 29.1364 157.739 29.0701 158.13 28.9375C158.521 28.8049 158.856 28.6061 159.134 28.3409C159.413 28.0758 159.625 27.7509 159.771 27.3665L163.688 27.625C163.489 28.5663 163.082 29.3883 162.465 30.0909C161.855 30.7869 161.067 31.3305 160.099 31.7216C159.138 32.1061 158.027 32.2983 156.768 32.2983ZM166.542 37.7273V16.7273H170.718V19.2926H170.907C171.093 18.8816 171.361 18.464 171.712 18.0398C172.07 17.6089 172.534 17.2509 173.104 16.9659C173.681 16.6742 174.397 16.5284 175.252 16.5284C176.366 16.5284 177.393 16.8201 178.335 17.4034C179.276 17.9801 180.028 18.8518 180.592 20.0185C181.155 21.1785 181.437 22.6335 181.437 24.3835C181.437 26.0871 181.162 27.5256 180.612 28.6989C180.068 29.8655 179.326 30.7505 178.384 31.3537C177.45 31.9503 176.402 32.2486 175.242 32.2486C174.42 32.2486 173.721 32.1127 173.144 31.8409C172.574 31.5691 172.107 31.2277 171.742 30.8168C171.378 30.3991 171.099 29.9782 170.907 29.554H170.778V37.7273H166.542ZM170.688 24.3636C170.688 25.2718 170.814 26.0639 171.066 26.7401C171.318 27.4162 171.683 27.9432 172.16 28.321C172.637 28.6922 173.217 28.8778 173.9 28.8778C174.589 28.8778 175.173 28.6889 175.65 28.3111C176.127 27.9266 176.488 27.3963 176.734 26.7202C176.986 26.0374 177.112 25.2519 177.112 24.3636C177.112 23.482 176.989 22.7064 176.744 22.0369C176.498 21.3674 176.137 20.8437 175.66 20.4659C175.183 20.0881 174.596 19.8991 173.9 19.8991C173.21 19.8991 172.627 20.0814 172.15 20.446C171.679 20.8106 171.318 21.3277 171.066 21.9972C170.814 22.6667 170.688 23.4555 170.688 24.3636ZM191.161 32.2983C189.597 32.2983 188.251 31.9669 187.124 31.304C186.004 30.6345 185.142 29.7064 184.539 28.5199C183.942 27.3333 183.644 25.9678 183.644 24.4233C183.644 22.8589 183.946 21.4867 184.549 20.3068C185.159 19.1203 186.024 18.1955 187.144 17.5327C188.264 16.8632 189.597 16.5284 191.141 16.5284C192.474 16.5284 193.64 16.7704 194.641 17.2543C195.642 17.7382 196.434 18.4176 197.018 19.2926C197.601 20.1676 197.923 21.1951 197.982 22.375H193.985C193.872 21.6127 193.574 20.9995 193.09 20.5355C192.613 20.0649 191.987 19.8295 191.211 19.8295C190.555 19.8295 189.981 20.0085 189.491 20.3665C189.007 20.7178 188.629 21.2315 188.357 21.9077C188.085 22.5838 187.95 23.4025 187.95 24.3636C187.95 25.3381 188.082 26.1667 188.347 26.8494C188.619 27.5322 189 28.0526 189.491 28.4105C189.981 28.7685 190.555 28.9474 191.211 28.9474C191.695 28.9474 192.129 28.848 192.513 28.6491C192.905 28.4503 193.226 28.1619 193.478 27.7841C193.737 27.3996 193.906 26.9389 193.985 26.402H197.982C197.916 27.5687 197.598 28.5961 197.028 29.4844C196.464 30.366 195.685 31.0554 194.691 31.5526C193.697 32.0497 192.52 32.2983 191.161 32.2983ZM200.694 32V16.7273H204.93V22.6534H206.123L210.279 16.7273H215.251L209.852 24.304L215.311 32H210.279L206.511 26.581H204.93V32H200.694ZM221.147 26.4119L226.646 16.7273H230.822V32H226.785V22.2855L221.306 32H217.1V16.7273H221.147V26.4119ZM241.178 32.2983C239.607 32.2983 238.255 31.9801 237.121 31.3438C235.994 30.7008 235.126 29.7926 234.516 28.6193C233.906 27.4394 233.601 26.044 233.601 24.4332C233.601 22.8622 233.906 21.4834 234.516 20.2969C235.126 19.1103 235.984 18.1856 237.091 17.5227C238.205 16.8598 239.511 16.5284 241.009 16.5284C242.016 16.5284 242.954 16.6908 243.823 17.0156C244.698 17.3338 245.46 17.8144 246.11 18.4574C246.766 19.1004 247.276 19.9091 247.641 20.8835C248.006 21.8513 248.188 22.9848 248.188 24.2841V25.4474H235.292V22.8224H244.201C244.201 22.2126 244.068 21.6723 243.803 21.2017C243.538 20.7311 243.17 20.3632 242.699 20.098C242.235 19.8262 241.695 19.6903 241.078 19.6903C240.435 19.6903 239.865 19.8395 239.368 20.1378C238.878 20.4295 238.493 20.8239 238.215 21.321C237.936 21.8116 237.794 22.3584 237.787 22.9616V25.4574C237.787 26.2131 237.926 26.866 238.205 27.4162C238.49 27.9664 238.891 28.3906 239.408 28.6889C239.925 28.9872 240.538 29.1364 241.248 29.1364C241.718 29.1364 242.149 29.0701 242.54 28.9375C242.931 28.8049 243.266 28.6061 243.544 28.3409C243.823 28.0758 244.035 27.7509 244.181 27.3665L248.098 27.625C247.9 28.5663 247.492 29.3883 246.875 30.0909C246.266 30.7869 245.477 31.3305 244.509 31.7216C243.548 32.1061 242.437 32.2983 241.178 32.2983ZM257.433 32V16.7273H270.786V32H266.739V20.0582H261.43V32H257.433ZM274.167 37.7273V16.7273H278.343V19.2926H278.532C278.718 18.8816 278.986 18.464 279.337 18.0398C279.695 17.6089 280.159 17.2509 280.729 16.9659C281.306 16.6742 282.022 16.5284 282.877 16.5284C283.991 16.5284 285.018 16.8201 285.96 17.4034C286.901 17.9801 287.653 18.8518 288.217 20.0185C288.78 21.1785 289.062 22.6335 289.062 24.3835C289.062 26.0871 288.787 27.5256 288.237 28.6989C287.693 29.8655 286.951 30.7505 286.009 31.3537C285.075 31.9503 284.027 32.2486 282.867 32.2486C282.045 32.2486 281.346 32.1127 280.769 31.8409C280.199 31.5691 279.732 31.2277 279.367 30.8168C279.003 30.3991 278.724 29.9782 278.532 29.554H278.403V37.7273H274.167ZM278.313 24.3636C278.313 25.2718 278.439 26.0639 278.691 26.7401C278.943 27.4162 279.308 27.9432 279.785 28.321C280.262 28.6922 280.842 28.8778 281.525 28.8778C282.214 28.8778 282.798 28.6889 283.275 28.3111C283.752 27.9266 284.113 27.3963 284.359 26.7202C284.611 26.0374 284.737 25.2519 284.737 24.3636C284.737 23.482 284.614 22.7064 284.369 22.0369C284.123 21.3674 283.762 20.8437 283.285 20.4659C282.808 20.0881 282.221 19.8991 281.525 19.8991C280.835 19.8991 280.252 20.0814 279.775 20.446C279.304 20.8106 278.943 21.3277 278.691 21.9972C278.439 22.6667 278.313 23.4555 278.313 24.3636ZM298.786 32.2983C297.242 32.2983 295.906 31.9702 294.779 31.3139C293.659 30.651 292.794 29.7296 292.184 28.5497C291.574 27.3632 291.269 25.9877 291.269 24.4233C291.269 22.8456 291.574 21.4669 292.184 20.2869C292.794 19.1004 293.659 18.179 294.779 17.5227C295.906 16.8598 297.242 16.5284 298.786 16.5284C300.331 16.5284 301.663 16.8598 302.783 17.5227C303.91 18.179 304.779 19.1004 305.388 20.2869C305.998 21.4669 306.303 22.8456 306.303 24.4233C306.303 25.9877 305.998 27.3632 305.388 28.5497C304.779 29.7296 303.91 30.651 302.783 31.3139C301.663 31.9702 300.331 32.2983 298.786 32.2983ZM298.806 29.017C299.509 29.017 300.095 28.8182 300.566 28.4205C301.037 28.0161 301.391 27.4659 301.63 26.7699C301.875 26.0739 301.998 25.2817 301.998 24.3935C301.998 23.5052 301.875 22.7131 301.63 22.017C301.391 21.321 301.037 20.7708 300.566 20.3665C300.095 19.9621 299.509 19.7599 298.806 19.7599C298.097 19.7599 297.5 19.9621 297.016 20.3665C296.539 20.7708 296.178 21.321 295.933 22.017C295.694 22.7131 295.575 23.5052 295.575 24.3935C295.575 25.2817 295.694 26.0739 295.933 26.7699C296.178 27.4659 296.539 28.0161 297.016 28.4205C297.5 28.8182 298.097 29.017 298.806 29.017ZM307.864 36.4744V28.6392H309.038C309.376 28.4271 309.647 28.089 309.853 27.625C310.065 27.161 310.237 26.6141 310.37 25.9844C310.509 25.3546 310.615 24.6752 310.688 23.946C310.768 23.2102 310.837 22.4678 310.897 21.7188L311.295 16.7273H323.008V28.6392H325.374V36.4744H321.337V32H312.001V36.4744H307.864ZM313.254 28.6392H319.011V19.9886H314.894L314.735 21.7188C314.622 23.3494 314.46 24.7348 314.248 25.875C314.036 27.0085 313.704 27.9299 313.254 28.6392ZM330.458 37.7273C329.921 37.7273 329.417 37.6842 328.946 37.598C328.482 37.5185 328.098 37.4157 327.793 37.2898L328.748 34.1278C329.245 34.2803 329.692 34.3632 330.09 34.3764C330.494 34.3897 330.842 34.2969 331.134 34.098C331.432 33.8991 331.674 33.5611 331.86 33.0838L332.108 32.4375L326.63 16.7273H331.084L334.246 27.9432H334.405L337.597 16.7273H342.081L336.145 33.6506C335.86 34.4725 335.472 35.1884 334.982 35.7983C334.498 36.4148 333.885 36.8887 333.142 37.2202C332.4 37.5582 331.505 37.7273 330.458 37.7273ZM344.249 32V16.7273H348.485V22.6534H349.678L353.834 16.7273H358.806L353.407 24.304L358.865 32H353.834L350.066 26.581H348.485V32H344.249ZM359.86 20.0582V16.7273H373.701V20.0582H368.779V32H364.742V20.0582H359.86ZM378.923 21.4205H383.487C385.509 21.4205 387.087 21.9044 388.22 22.8722C389.354 23.8333 389.92 25.1193 389.92 26.7301C389.92 27.7775 389.665 28.6989 389.155 29.4943C388.644 30.2831 387.909 30.8996 386.947 31.3438C385.986 31.7812 384.833 32 383.487 32H376.268V16.7273H380.315V28.669H383.487C384.196 28.669 384.78 28.4901 385.237 28.1321C385.695 27.7741 385.927 27.3168 385.933 26.7599C385.927 26.17 385.695 25.6894 385.237 25.3182C384.78 24.9403 384.196 24.7514 383.487 24.7514H378.923V21.4205ZM391.561 32V16.7273H395.797V32H391.561Z" fill="#333333"/>
<defs>
<clipPath id="clip0_103_106">
<rect width="44" height="44" fill="white"/>
</clipPath>
</defs>
</svg>
